<?xml version="1.0" encoding="utf-8"?><svg xmlns="http://www.w3.org/2000/svg" xmlns:xlink="http://www.w3.org/1999/xlink" width="1304" height="697" preserveAspectRatio="xMidYMid" viewBox="0 0 1304 697" style="z-index:1;margin-right:-2px;display:block;background-repeat-y:initial;background-repeat-x:initial;background-color:rgb(221, 221, 221);animation-play-state:paused" ><g transform="translate(652,348.5) scale(1,1) translate(-652,-348.5)" style="transform:matrix(1, 0, 0, 1, 0, 0);animation-play-state:paused" ><defs style="animation-play-state:paused" ><linearGradient id="lg-0.6260510757823801" x1="0" x2="0" y1="0" y2="1" style="animation-play-state:paused" ><stop stop-color="#f6f7f7" offset="0.3" style="animation-play-state:paused" ></stop>

  
<stop stop-color="#e4eaf0" offset="0.6499999999999999" style="animation-play-state:paused" ></stop>

  
<stop stop-color="#e4eaf0" offset="1" style="animation-play-state:paused" ></stop></linearGradient>


<linearGradient id="fg-lg-0.6260510757823801" x1="0" x2="0" y1="0" y2="1" style="animation-play-state:paused" ><stop stop-color="#f6f7f7" stop-opacity="1" offset="0.3" style="animation-play-state:paused" ></stop>

  
<stop stop-color="#e4eaf0" stop-opacity="0.66" offset="0.6499999999999999" style="animation-play-state:paused" ></stop>

  
<stop stop-color="#e4eaf0" stop-opacity="0" offset="1" style="animation-play-state:paused" ></stop></linearGradient>


<style type="text/css" style="animation-play-state:paused" >path { fill: none; stroke: #ffffff; stroke-width: 2px }</style></defs>


<rect x="0" y="0" width="1304" height="697" fill="url(#lg-0.6260510757823801)" style="animation-play-state:paused" ></rect>
<path d="M0 209.1 L-9128 697" style="animation-play-state:paused" ></path>
<path d="M10.03076923076923 209.1 L-8977.538461538461 697" style="animation-play-state:paused" ></path>
<path d="M20.06153846153846 209.1 L-8827.076923076924 697" style="animation-play-state:paused" ></path>
<path d="M30.092307692307692 209.1 L-8676.615384615385 697" style="animation-play-state:paused" ></path>
<path d="M40.12307692307692 209.1 L-8526.153846153846 697" style="animation-play-state:paused" ></path>
<path d="M50.15384615384615 209.1 L-8375.692307692309 697" style="animation-play-state:paused" ></path>
<path d="M60.184615384615384 209.1 L-8225.23076923077 697" style="animation-play-state:paused" ></path>
<path d="M70.21538461538462 209.1 L-8074.7692307692305 697" style="animation-play-state:paused" ></path>
<path d="M80.24615384615385 209.1 L-7924.307692307692 697" style="animation-play-state:paused" ></path>
<path d="M90.27692307692308 209.1 L-7773.846153846154 697" style="animation-play-state:paused" ></path>
<path d="M100.3076923076923 209.1 L-7623.384615384615 697" style="animation-play-state:paused" ></path>
<path d="M110.33846153846154 209.1 L-7472.923076923077 697" style="animation-play-state:paused" ></path>
<path d="M120.36923076923077 209.1 L-7322.461538461539 697" style="animation-play-state:paused" ></path>
<path d="M130.4 209.1 L-7172 697" style="animation-play-state:paused" ></path>
<path d="M140.43076923076924 209.1 L-7021.538461538461 697" style="animation-play-state:paused" ></path>
<path d="M150.46153846153845 209.1 L-6871.076923076923 697" style="animation-play-state:paused" ></path>
<path d="M160.4923076923077 209.1 L-6720.615384615385 697" style="animation-play-state:paused" ></path>
<path d="M170.52307692307693 209.1 L-6570.153846153846 697" style="animation-play-state:paused" ></path>
<path d="M180.55384615384617 209.1 L-6419.692307692308 697" style="animation-play-state:paused" ></path>
<path d="M190.58461538461538 209.1 L-6269.2307692307695 697" style="animation-play-state:paused" ></path>
<path d="M200.6153846153846 209.1 L-6118.7692307692305 697" style="animation-play-state:paused" ></path>
<path d="M210.64615384615385 209.1 L-5968.307692307692 697" style="animation-play-state:paused" ></path>
<path d="M220.6769230769231 209.1 L-5817.846153846154 697" style="animation-play-state:paused" ></path>
<path d="M230.7076923076923 209.1 L-5667.384615384615 697" style="animation-play-state:paused" ></path>
<path d="M240.73846153846154 209.1 L-5516.923076923077 697" style="animation-play-state:paused" ></path>
<path d="M250.76923076923077 209.1 L-5366.461538461539 697" style="animation-play-state:paused" ></path>
<path d="M260.8 209.1 L-5216 697" style="animation-play-state:paused" ></path>
<path d="M270.83076923076925 209.1 L-5065.538461538461 697" style="animation-play-state:paused" ></path>
<path d="M280.8615384615385 209.1 L-4915.076923076923 697" style="animation-play-state:paused" ></path>
<path d="M290.89230769230767 209.1 L-4764.615384615385 697" style="animation-play-state:paused" ></path>
<path d="M300.9230769230769 209.1 L-4614.153846153846 697" style="animation-play-state:paused" ></path>
<path d="M310.95384615384614 209.1 L-4463.692307692308 697" style="animation-play-state:paused" ></path>
<path d="M320.9846153846154 209.1 L-4313.2307692307695 697" style="animation-play-state:paused" ></path>
<path d="M331.0153846153846 209.1 L-4162.7692307692305 697" style="animation-play-state:paused" ></path>
<path d="M341.04615384615386 209.1 L-4012.3076923076924 697" style="animation-play-state:paused" ></path>
<path d="M351.0769230769231 209.1 L-3861.8461538461543 697" style="animation-play-state:paused" ></path>
<path d="M361.10769230769233 209.1 L-3711.3846153846152 697" style="animation-play-state:paused" ></path>
<path d="M371.1384615384615 209.1 L-3560.923076923077 697" style="animation-play-state:paused" ></path>
<path d="M381.16923076923075 209.1 L-3410.461538461538 697" style="animation-play-state:paused" ></path>
<path d="M391.2 209.1 L-3260 697" style="animation-play-state:paused" ></path>
<path d="M401.2307692307692 209.1 L-3109.538461538462 697" style="animation-play-state:paused" ></path>
<path d="M411.26153846153846 209.1 L-2959.076923076923 697" style="animation-play-state:paused" ></path>
<path d="M421.2923076923077 209.1 L-2808.6153846153848 697" style="animation-play-state:paused" ></path>
<path d="M431.32307692307694 209.1 L-2658.1538461538457 697" style="animation-play-state:paused" ></path>
<path d="M441.3538461538462 209.1 L-2507.6923076923076 697" style="animation-play-state:paused" ></path>
<path d="M451.38461538461536 209.1 L-2357.2307692307695 697" style="animation-play-state:paused" ></path>
<path d="M461.4153846153846 209.1 L-2206.7692307692305 697" style="animation-play-state:paused" ></path>
<path d="M471.44615384615383 209.1 L-2056.3076923076924 697" style="animation-play-state:paused" ></path>
<path d="M481.4769230769231 209.1 L-1905.8461538461543 697" style="animation-play-state:paused" ></path>
<path d="M491.5076923076923 209.1 L-1755.3846153846152 697" style="animation-play-state:paused" ></path>
<path d="M501.53846153846155 209.1 L-1604.9230769230771 697" style="animation-play-state:paused" ></path>
<path d="M511.5692307692308 209.1 L-1454.461538461538 697" style="animation-play-state:paused" ></path>
<path d="M521.6 209.1 L-1304 697" style="animation-play-state:paused" ></path>
<path d="M531.6307692307693 209.1 L-1153.538461538462 697" style="animation-play-state:paused" ></path>
<path d="M541.6615384615385 209.1 L-1003.0769230769229 697" style="animation-play-state:paused" ></path>
<path d="M551.6923076923077 209.1 L-852.6153846153848 697" style="animation-play-state:paused" ></path>
<path d="M561.723076923077 209.1 L-702.1538461538457 697" style="animation-play-state:paused" ></path>
<path d="M571.7538461538461 209.1 L-551.6923076923085 697" style="animation-play-state:paused" ></path>
<path d="M581.7846153846153 209.1 L-401.2307692307695 697" style="animation-play-state:paused" ></path>
<path d="M591.8153846153846 209.1 L-250.7692307692305 697" style="animation-play-state:paused" ></path>
<path d="M601.8461538461538 209.1 L-100.30769230769147 697" style="animation-play-state:paused" ></path>
<path d="M611.876923076923 209.1 L50.153846153845734 697" style="animation-play-state:paused" ></path>
<path d="M621.9076923076923 209.1 L200.61538461538476 697" style="animation-play-state:paused" ></path>
<path d="M631.9384615384615 209.1 L351.0769230769238 697" style="animation-play-state:paused" ></path>
<path d="M641.9692307692308 209.1 L501.538461538461 697" style="animation-play-state:paused" ></path>
<path d="M652 209.1 L652 697" style="animation-play-state:paused" ></path>
<path d="M662.0307692307692 209.1 L802.461538461539 697" style="animation-play-state:paused" ></path>
<path d="M672.0615384615385 209.1 L952.9230769230762 697" style="animation-play-state:paused" ></path>
<path d="M682.0923076923077 209.1 L1103.3846153846152 697" style="animation-play-state:paused" ></path>
<path d="M692.123076923077 209.1 L1253.8461538461543 697" style="animation-play-state:paused" ></path>
<path d="M702.1538461538462 209.1 L1404.3076923076915 697" style="animation-play-state:paused" ></path>
<path d="M712.1846153846154 209.1 L1554.7692307692305 697" style="animation-play-state:paused" ></path>
<path d="M722.2153846153847 209.1 L1705.2307692307695 697" style="animation-play-state:paused" ></path>
<path d="M732.2461538461539 209.1 L1855.6923076923085 697" style="animation-play-state:paused" ></path>
<path d="M742.276923076923 209.1 L2006.1538461538457 697" style="animation-play-state:paused" ></path>
<path d="M752.3076923076923 209.1 L2156.6153846153848 697" style="animation-play-state:paused" ></path>
<path d="M762.3384615384615 209.1 L2307.076923076924 697" style="animation-play-state:paused" ></path>
<path d="M772.3692307692307 209.1 L2457.538461538461 697" style="animation-play-state:paused" ></path>
<path d="M782.4 209.1 L2608 697" style="animation-play-state:paused" ></path>
<path d="M792.4307692307692 209.1 L2758.461538461539 697" style="animation-play-state:paused" ></path>
<path d="M802.4615384615385 209.1 L2908.923076923076 697" style="animation-play-state:paused" ></path>
<path d="M812.4923076923077 209.1 L3059.3846153846152 697" style="animation-play-state:paused" ></path>
<path d="M822.5230769230769 209.1 L3209.8461538461543 697" style="animation-play-state:paused" ></path>
<path d="M832.5538461538462 209.1 L3360.3076923076915 697" style="animation-play-state:paused" ></path>
<path d="M842.5846153846154 209.1 L3510.7692307692305 697" style="animation-play-state:paused" ></path>
<path d="M852.6153846153846 209.1 L3661.2307692307695 697" style="animation-play-state:paused" ></path>
<path d="M862.6461538461539 209.1 L3811.6923076923085 697" style="animation-play-state:paused" ></path>
<path d="M872.6769230769231 209.1 L3962.1538461538457 697" style="animation-play-state:paused" ></path>
<path d="M882.7076923076924 209.1 L4112.615384615385 697" style="animation-play-state:paused" ></path>
<path d="M892.7384615384616 209.1 L4263.076923076924 697" style="animation-play-state:paused" ></path>
<path d="M902.7692307692307 209.1 L4413.538461538461 697" style="animation-play-state:paused" ></path>
<path d="M912.8 209.1 L4564 697" style="animation-play-state:paused" ></path>
<path d="M922.8307692307692 209.1 L4714.461538461539 697" style="animation-play-state:paused" ></path>
<path d="M932.8615384615384 209.1 L4864.923076923076 697" style="animation-play-state:paused" ></path>
<path d="M942.8923076923077 209.1 L5015.384615384615 697" style="animation-play-state:paused" ></path>
<path d="M952.9230769230769 209.1 L5165.846153846154 697" style="animation-play-state:paused" ></path>
<path d="M962.9538461538461 209.1 L5316.3076923076915 697" style="animation-play-state:paused" ></path>
<path d="M972.9846153846154 209.1 L5466.7692307692305 697" style="animation-play-state:paused" ></path>
<path d="M983.0153846153846 209.1 L5617.2307692307695 697" style="animation-play-state:paused" ></path>
<path d="M993.0461538461539 209.1 L5767.6923076923085 697" style="animation-play-state:paused" ></path>
<path d="M1003.0769230769231 209.1 L5918.153846153846 697" style="animation-play-state:paused" ></path>
<path d="M1013.1076923076923 209.1 L6068.615384615385 697" style="animation-play-state:paused" ></path>
<path d="M1023.1384615384616 209.1 L6219.076923076924 697" style="animation-play-state:paused" ></path>
<path d="M1033.1692307692308 209.1 L6369.538461538461 697" style="animation-play-state:paused" ></path>
<path d="M1043.2 209.1 L6520 697" style="animation-play-state:paused" ></path>
<path d="M1053.2307692307693 209.1 L6670.461538461539 697" style="animation-play-state:paused" ></path>
<path d="M1063.2615384615385 209.1 L6820.923076923076 697" style="animation-play-state:paused" ></path>
<path d="M1073.2923076923078 209.1 L6971.384615384615 697" style="animation-play-state:paused" ></path>
<path d="M1083.323076923077 209.1 L7121.846153846154 697" style="animation-play-state:paused" ></path>
<path d="M1093.3538461538462 209.1 L7272.3076923076915 697" style="animation-play-state:paused" ></path>
<path d="M1103.3846153846155 209.1 L7422.7692307692305 697" style="animation-play-state:paused" ></path>
<path d="M1113.4153846153847 209.1 L7573.2307692307695 697" style="animation-play-state:paused" ></path>
<path d="M1123.446153846154 209.1 L7723.6923076923085 697" style="animation-play-state:paused" ></path>
<path d="M1133.4769230769232 209.1 L7874.153846153848 697" style="animation-play-state:paused" ></path>
<path d="M1143.5076923076922 209.1 L8024.615384615383 697" style="animation-play-state:paused" ></path>
<path d="M1153.5384615384614 209.1 L8175.076923076922 697" style="animation-play-state:paused" ></path>
<path d="M1163.5692307692307 209.1 L8325.538461538461 697" style="animation-play-state:paused" ></path>
<path d="M1173.6 209.1 L8476 697" style="animation-play-state:paused" ></path>
<path d="M1183.6307692307691 209.1 L8626.461538461539 697" style="animation-play-state:paused" ></path>
<path d="M1193.6615384615384 209.1 L8776.923076923078 697" style="animation-play-state:paused" ></path>
<path d="M1203.6923076923076 209.1 L8927.384615384617 697" style="animation-play-state:paused" ></path>
<path d="M1213.7230769230769 209.1 L9077.846153846152 697" style="animation-play-state:paused" ></path>
<path d="M1223.753846153846 209.1 L9228.307692307691 697" style="animation-play-state:paused" ></path>
<path d="M1233.7846153846153 209.1 L9378.76923076923 697" style="animation-play-state:paused" ></path>
<path d="M1243.8153846153846 209.1 L9529.23076923077 697" style="animation-play-state:paused" ></path>
<path d="M1253.8461538461538 209.1 L9679.692307692309 697" style="animation-play-state:paused" ></path>
<path d="M1263.876923076923 209.1 L9830.153846153848 697" style="animation-play-state:paused" ></path>
<path d="M1273.9076923076923 209.1 L9980.615384615383 697" style="animation-play-state:paused" ></path>
<path d="M1283.9384615384615 209.1 L10131.076923076922 697" style="animation-play-state:paused" ></path>
<path d="M1293.9692307692308 209.1 L10281.538461538461 697" style="animation-play-state:paused" ></path>
<path d="M1304 209.1 L10432 697" style="animation-play-state:paused" ></path>
<g transform="matrix(1,0,0,1,0,0)" style="transform:matrix(1, 0, 0, 1, 0, 0);animation-play-state:paused" ><path d="M0 209.1 L1304 209.1" style="animation-play-state:paused" ></path></g>
<g transform="matrix(1,0,0,1,0,0)" style="transform:matrix(1, 0, 0, 1, 0, 0);animation-play-state:paused" ><path d="M0 212.7953372781065 L1304 212.7953372781065" style="animation-play-state:paused" ></path></g>
<g transform="matrix(1,0,0,1,0,0)" style="transform:matrix(1, 0, 0, 1, 0, 0);animation-play-state:paused" ><path d="M0 220.18601183431952 L1304 220.18601183431952" style="animation-play-state:paused" ></path></g>
<g transform="matrix(1,0,0,1,0,0)" style="transform:matrix(1, 0, 0, 1, 0, 0);animation-play-state:paused" ><path d="M0 231.27202366863904 L1304 231.27202366863904" style="animation-play-state:paused" ></path></g>
<g transform="matrix(1,0,0,1,0,0)" style="transform:matrix(1, 0, 0, 1, 0, 0);animation-play-state:paused" ><path d="M0 246.05337278106506 L1304 246.05337278106506" style="animation-play-state:paused" ></path></g>
<g transform="matrix(1,0,0,1,0,0)" style="transform:matrix(1, 0, 0, 1, 0, 0);animation-play-state:paused" ><path d="M0 264.5300591715976 L1304 264.5300591715976" style="animation-play-state:paused" ></path></g>
<g transform="matrix(1,0,0,1,0,0)" style="transform:matrix(1, 0, 0, 1, 0, 0);animation-play-state:paused" ><path d="M0 286.70208284023664 L1304 286.70208284023664" style="animation-play-state:paused" ></path></g>
<g transform="matrix(1,0,0,1,0,0)" style="transform:matrix(1, 0, 0, 1, 0, 0);animation-play-state:paused" ><path d="M0 312.5694437869822 L1304 312.5694437869822" style="animation-play-state:paused" ></path></g>
<g transform="matrix(1,0,0,1,0,0)" style="transform:matrix(1, 0, 0, 1, 0, 0);animation-play-state:paused" ><path d="M0 342.1321420118343 L1304 342.1321420118343" style="animation-play-state:paused" ></path></g>
<g transform="matrix(1,0,0,1,0,0)" style="transform:matrix(1, 0, 0, 1, 0, 0);animation-play-state:paused" ><path d="M0 375.39017751479287 L1304 375.39017751479287" style="animation-play-state:paused" ></path></g>
<g transform="matrix(1,0,0,1,0,0)" style="transform:matrix(1, 0, 0, 1, 0, 0);animation-play-state:paused" ><path d="M0 412.34355029585794 L1304 412.34355029585794" style="animation-play-state:paused" ></path></g>
<g transform="matrix(1,0,0,1,0,0)" style="transform:matrix(1, 0, 0, 1, 0, 0);animation-play-state:paused" ><path d="M0 452.99226035502954 L1304 452.99226035502954" style="animation-play-state:paused" ></path></g>
<g transform="matrix(1,0,0,1,0,0)" style="transform:matrix(1, 0, 0, 1, 0, 0);animation-play-state:paused" ><path d="M0 497.3363076923076 L1304 497.3363076923076" style="animation-play-state:paused" ></path></g>
<g transform="matrix(1,0,0,1,0,0)" style="transform:matrix(1, 0, 0, 1, 0, 0);animation-play-state:paused" ><path d="M0 545.3756923076922 L1304 545.3756923076922" style="animation-play-state:paused" ></path></g>
<g transform="matrix(1,0,0,1,0,0)" style="transform:matrix(1, 0, 0, 1, 0, 0);animation-play-state:paused" ><path d="M0 597.1104142011834 L1304 597.1104142011834" style="animation-play-state:paused" ></path></g>
<g transform="matrix(1,0,0,1,0,0)" style="transform:matrix(1, 0, 0, 1, 0, 0);animation-play-state:paused" ><path d="M0 652.540473372781 L1304 652.540473372781" style="animation-play-state:paused" ></path></g>
<g transform="matrix(1,0,0,1,0,0)" style="transform:matrix(1, 0, 0, 1, 0, 0);animation-play-state:paused" ><path d="M0 711.6658698224851 L1304 711.6658698224851" style="animation-play-state:paused" ></path></g>
<rect x="0" y="0" width="1304" height="697" fill="url(#fg-lg-0.6260510757823801)" style="animation-play-state:paused" ></rect></g></svg>